# xmcd
#
# Track frame offsets: 
#        150
#        15222
#        26832
#        40322
#        55583
#        73677
#        86347
#        101204
#        122884
#        143974
#        156714
#        169334
#
# Disc length: 2478 seconds
#
# Revision: 2
# Processed by: cddbd v1.5.2PL0 Copyright (c) Steve Scherf et al.
# Submitted via: ExactAudioCopy v0.99pb4
#
DISCID=a509ac0c
DTITLE=Louis Armstrong - Louis Armstrong Golden Jazz [CD 2)
DYEAR=2004
DGENRE=Jazz
TTITLE0=chimes blues
TTITLE1=dipper mouth blues
TTITLE2=snake rag
TTITLE3=bye and bye
TTITLE4=black ole town blues
TTITLE5=stompin at the savoy
TTITLE6=stardust
TTITLE7=tea for two
TTITLE8=i used to love you
TTITLE9=lover
TTITLE10=c'est si bon
TTITLE11=i love the guy
EXTD=YEAR: 2004
EXTT0=
EXTT1=
EXTT2=
EXTT3=
EXTT4=
EXTT5=
EXTT6=
EXTT7=
EXTT8=
EXTT9=
EXTT10=
EXTT11=
PLAYORDER=
